<?xml version="1.0" encoding="utf-8"?>
<!-- Generator: Adobe Illustrator 24.0.2, SVG Export Plug-In . SVG Version: 6.00 Build 0)  -->
<!DOCTYPE svg PUBLIC "-//W3C//DTD SVG 1.1//EN" "http://www.w3.org/Graphics/SVG/1.1/DTD/svg11.dtd" [
	<!ENTITY ns_extend "http://ns.adobe.com/Extensibility/1.0/">
	<!ENTITY ns_ai "http://ns.adobe.com/AdobeIllustrator/10.0/">
	<!ENTITY ns_graphs "http://ns.adobe.com/Graphs/1.0/">
	<!ENTITY ns_vars "http://ns.adobe.com/Variables/1.0/">
	<!ENTITY ns_imrep "http://ns.adobe.com/ImageReplacement/1.0/">
	<!ENTITY ns_sfw "http://ns.adobe.com/SaveForWeb/1.0/">
	<!ENTITY ns_custom "http://ns.adobe.com/GenericCustomNamespace/1.0/">
	<!ENTITY ns_adobe_xpath "http://ns.adobe.com/XPath/1.0/">
]>
<svg version="1.1" id="Слой_1" xmlns:x="&ns_extend;" xmlns:i="&ns_ai;" xmlns:graph="&ns_graphs;"
	 xmlns="http://www.w3.org/2000/svg" xmlns:xlink="http://www.w3.org/1999/xlink" x="0px" y="0px" viewBox="0 0 262 64"
	 style="enable-background:new 0 0 262 64;" xml:space="preserve">
<style type="text/css">
	.st0{fill:url(#SVGID_1_);}
	.st1{fill:#FF8A8E;}
	.st2{fill:#FFAAA4;}
	.st3{fill:#FFFFFF;}
	.st4{fill:#FABB67;}
	.st5{fill:#ECAD99;}
	.st6{fill:#F14F7E;}
	.st7{fill:#60F2C9;}
</style>
<metadata>
	<sfw  xmlns="&ns_sfw;">
		<slices></slices>
		<sliceSourceBounds  bottomLeftOrigin="true" height="61.2" width="262" x="0" y="2.3"></sliceSourceBounds>
	</sfw>
</metadata>
<g>
	
		<radialGradient id="SVGID_1_" cx="45.6972" cy="27.772" r="43.6258" gradientTransform="matrix(0.9982 6.030000e-02 4.540000e-02 -0.7519 2.2019 39.5838)" gradientUnits="userSpaceOnUse">
		<stop  offset="2.500000e-03" style="stop-color:#FFD6CF"/>
		<stop  offset="1" style="stop-color:#FFC2B5"/>
	</radialGradient>
	<path class="st0" d="M55.8,15.3c6.4,0.9,23,13,17.9,30.1c0,0,1.7-3.4,4.7-2.3c4.6,1.6-1.3,18.6-8.2,9.5c0,0-7.9,10.7-26.3,8.1
		c-12.8-1.8-18.8-10.2-19.5-12c-8.2,8-11.8-9.8-7-10.7c3.2-0.6,4.6,3,4.6,3C19.4,23.4,37.6,14.8,44,14.6
		C44,14.6,48.9,14.3,55.8,15.3z"/>
	<path class="st1" d="M66,51.4c1.1-1.8,0.8-4.1-0.7-4.9c-1.5-0.8-3.6-0.1-4.7,1.7c-1.1,1.8-0.8,4,0.7,4.9C62.7,54,64.8,53.2,66,51.4
		z"/>
	<path class="st1" d="M27.1,45.6c-0.9-1.9-0.3-4.1,1.3-4.8c1.6-0.6,3.6,0.3,4.5,2.3c0.9,1.9,0.3,4.1-1.3,4.8
		C30,48.5,28,47.5,27.1,45.6z"/>
	<path d="M60.1,36.3c-0.3-0.2-0.5-0.4-0.9-0.6c-0.3-0.2-0.7-0.4-1-0.5c-0.7-0.3-1.4-0.6-2.1-0.8l0-0.8c0.7,0.3,1.6,0.7,2.3,1.1
		c0.3,0.2,0.7,0.4,1,0.6c0.3,0.2,0.6,0.5,0.9,0.7L60.1,36.3z"/>
	<path d="M37.4,32.7c0.3-0.1,0.6-0.2,1-0.3c0.4-0.1,0.7-0.1,1.1-0.2c0.7-0.1,1.5-0.1,2.2,0l0.2-0.8c-0.8,0-1.8,0.1-2.5,0.3
		c-0.4,0.1-0.8,0.2-1.1,0.3c-0.4,0.1-0.7,0.2-1.1,0.4L37.4,32.7z"/>
	<path d="M40.9,47.4c0.5,1,1.2,2,2,2.8c0.8,0.8,1.8,1.4,2.8,1.5c0.5,0.1,1.1,0,1.6-0.2c0.5-0.1,1-0.4,1.5-0.7c1-0.6,1.9-1.3,2.8-2.1
		l0,0c0.1-0.1,0.2-0.1,0.3,0c0.1,0.1,0.1,0.2,0,0.2c-0.7,0.9-1.6,1.8-2.6,2.5c-0.5,0.3-1.1,0.6-1.7,0.8c-0.6,0.2-1.3,0.3-1.9,0.2
		c-0.6-0.1-1.3-0.3-1.8-0.6c-0.6-0.3-1-0.7-1.4-1.2c-0.8-0.9-1.4-2-1.8-3.2c0-0.1,0-0.2,0.1-0.2C40.8,47.3,40.9,47.3,40.9,47.4
		L40.9,47.4z"/>
	<path d="M51.5,47.7c0.1,0.5,0.4,1.1,0.8,1.5c0.4,0.4,0.9,0.7,1.5,0.9c0.5,0.2,1.1,0.3,1.7,0.3c0.3,0,0.6,0,0.9,0l0.9-0.1l0,0
		c0.2,0,0.4,0.1,0.4,0.4c0,0.2-0.1,0.4-0.4,0.4c0,0,0,0,0,0l-1,0.1c-0.3,0-0.6,0-1,0c-0.6-0.1-1.3-0.2-1.9-0.4
		C53,50.4,52.4,50,52,49.5c-0.4-0.5-0.7-1.1-0.8-1.8c0-0.1,0.1-0.2,0.2-0.2C51.4,47.5,51.5,47.6,51.5,47.7L51.5,47.7z"/>
	<path d="M42.2,46.8c-0.5,0.4-1,0.8-1.5,1c-0.6,0.3-1.1,0.5-1.8,0.6c-0.6,0.1-1.3,0.1-2-0.1c-0.7-0.2-1.2-0.6-1.7-1.1
		c-0.2-0.2-0.2-0.4,0-0.6c0.2-0.1,0.4-0.2,0.5,0l0,0c0.4,0.4,0.8,0.7,1.3,0.8c0.5,0.2,1,0.2,1.6,0.1c0.6-0.1,1.1-0.2,1.6-0.4
		c0.5-0.2,1.1-0.5,1.6-0.8l0,0c0.1-0.1,0.2,0,0.3,0.1C42.3,46.6,42.3,46.7,42.2,46.8z"/>
	<path d="M48,5.8c-0.5-0.1-0.8,0.1-0.8,0c0-0.1,0.7-0.5,1.1-0.6C49,5,49.7,5.3,50.1,5.8c0.5,0.6,0.4,1.3,0.2,1.8
		c-0.2,0.5-0.7,1.2-1.5,1.6c-0.5,0.2-1,0.4-1.6,0.4c-0.5,0-1.1-0.1-1.6-0.3c-0.5-0.2-1-0.5-1.3-1c-0.4-0.4-0.6-1-0.7-1.5
		c-0.1-0.5-0.2-1-0.1-1.6c0.1-1.1,0.7-2.1,1.4-2.9c0.7-0.8,1.6-1.4,2.7-1.7c0.5-0.2,1.1-0.3,1.6-0.3c0.5,0,1.1,0.1,1.6,0.2
		c1,0.3,2,0.9,2.7,1.7c0.7,0.8,1.2,1.9,1.3,2.9c0.2,1.1,0,2.2-0.5,3.2c-0.5,1-1.2,1.8-2.1,2.5l-0.3,0.2l-0.3,0.2
		c-0.2,0.1-0.4,0.3-0.6,0.4c-0.4,0.3-0.7,0.6-1.1,0.9c-1.4,1.2-2.4,2.7-2.5,4.5c-0.1,0.9,0.1,1.7,0.4,2.6c0.3,0.9,0.7,1.7,1.2,2.6
		l0,0c0,0.1,0,0.2-0.1,0.3c-0.1,0-0.2,0-0.2,0c-0.7-0.7-1.3-1.5-1.8-2.4c-0.5-0.9-0.8-2-0.7-3c0-1.1,0.3-2.2,0.9-3.1
		c0.5-0.9,1.2-1.7,2-2.4c0.4-0.3,0.8-0.7,1.2-0.9c0.2-0.1,0.4-0.3,0.6-0.4l0.3-0.2l0.3-0.2c0.7-0.5,1.3-1.2,1.6-1.9
		c0.4-0.8,0.5-1.6,0.4-2.4c-0.1-0.8-0.5-1.6-1-2.3c-0.5-0.7-1.3-1.2-2.1-1.4c-0.4-0.1-0.8-0.2-1.3-0.2c-0.4,0-0.9,0-1.3,0.2
		c-0.8,0.2-1.6,0.7-2.2,1.3c-0.6,0.6-1.1,1.4-1.2,2.2c-0.1,0.4,0,0.9,0.1,1.3c0.1,0.4,0.2,0.8,0.5,1.2c0.5,0.7,1.3,1,2.2,1
		c0.4,0,0.8-0.2,1.2-0.3c0.4-0.2,0.6-0.6,0.7-1c0.1-0.4,0.1-0.8-0.1-1.2C48.8,6,48.5,5.8,48,5.8z"/>
	<path d="M49.9,19.7c0.1-1,0.3-2.1,0.7-3c0.4-1,1-1.9,1.7-2.7c0.2-0.2,0.3-0.4,0.5-0.6c0.2-0.2,0.4-0.4,0.6-0.5
		c0.4-0.3,0.9-0.7,1.3-0.9c0.9-0.5,2-0.9,3-1c0.3-0.1,0.6,0.1,0.6,0.5c0,0.3-0.1,0.5-0.3,0.6L58,12c-0.2,0.1-0.4,0.2-0.7,0.3
		c-0.2,0.1-0.4,0.2-0.7,0.3c-0.4,0.2-0.9,0.4-1.2,0.6c-0.4,0.2-0.8,0.5-1.2,0.8c-0.2,0.1-0.4,0.3-0.5,0.4c-0.2,0.1-0.3,0.3-0.5,0.5
		c-0.7,0.7-1.2,1.4-1.7,2.2c-0.5,0.8-0.9,1.7-1.2,2.6l0,0c0,0.1-0.1,0.1-0.2,0.1C49.9,19.9,49.9,19.8,49.9,19.7z"/>
	<path class="st1" d="M15.4,44c2.6,5.9,5.2,7.4,8.6,4c0.3-0.3,0.7-0.2,0.9,0.1c1.4,2.1,6.8,8.6,19.5,10.2c13.2,1.6,23-4.6,25.4-6.3
		c0.3-0.2,0.7-0.2,1,0.1c0.8,0.9,2.5,2.7,4.1,2.3c2.2-0.6,4.3-4.7,4.3-4.7l0.3,0.3c0,0-3.3,9.4-9.2,2.7c0,0-7.8,10.1-26.3,7.8
		c0,0-14.7-1.9-19.5-12C24.4,48.7,18.2,55.9,15.4,44z"/>
	<path d="M80.6,46.7c0-0.6,0-1.2-0.2-1.7c-0.2-0.6-0.4-1.2-0.9-1.6c-0.2-0.2-0.6-0.4-0.9-0.5c-0.3-0.1-0.6-0.2-0.9-0.2
		c-0.6-0.1-1.3,0-1.8,0.3c-0.4,0.2-0.8,0.4-1.1,0.7c0.5-2.5,0.6-5.1,0.2-7.7c-0.5-3.3-1.8-6.4-3.6-9.2c-1.8-2.8-4.1-5.2-6.6-7.2
		c-1.3-1-2.7-1.9-4.1-2.8c-1.5-0.8-3-1.5-4.7-1.8h0c-0.3-0.1-0.6,0.1-0.6,0.4c-0.1,0.3,0.1,0.6,0.4,0.6l0,0c1.5,0.3,3,0.9,4.3,1.7
		c1.4,0.8,2.7,1.7,4,2.6c2.5,2,4.7,4.3,6.4,7c1.7,2.6,3,5.6,3.5,8.8c0.5,3.1,0.2,6.3-0.7,9.4c-0.1,0.2,0,0.4,0.2,0.6
		c0.2,0.1,0.5,0,0.6-0.2l0,0c0.5-0.8,1.2-1.7,2.1-2c0.4-0.2,0.9-0.3,1.4-0.2c0.2,0,0.5,0.1,0.7,0.2c0.2,0.1,0.4,0.2,0.5,0.3
		c0.3,0.3,0.5,0.7,0.7,1.2c0.1,0.5,0.2,1,0.2,1.5c0,1-0.2,2.1-0.5,3.1c-0.3,1-0.8,2-1.3,2.8c-0.6,0.9-1.3,1.6-2.2,2.1
		c-0.9,0.4-1.9,0.4-2.8-0.1c-0.9-0.5-1.6-1.2-2.3-2.1l0,0c0,0,0,0-0.1-0.1c-0.2-0.1-0.5-0.1-0.6,0.1l0,0c-0.6,0.8-1.4,1.6-2.2,2.2
		c-0.8,0.7-1.7,1.3-2.6,1.9c-1.8,1.1-3.8,2-5.8,2.7c-2,0.6-4.2,1.1-6.3,1.3c-2.1,0.2-4.3,0.2-6.5,0c-4.3-0.3-8.5-1.4-12.3-3.4
		c-1.9-1-3.7-2.2-5.3-3.7c-0.8-0.7-1.6-1.5-2.2-2.3c-0.3-0.4-0.7-0.8-1-1.3c-0.3-0.4-0.6-0.9-0.8-1.3c0,0,0,0,0,0c0,0,0,0,0,0l0,0
		c0,0,0,0,0,0c0,0,0-0.1-0.1-0.1c0,0,0,0,0,0c0,0-0.1-0.1-0.1-0.1c0,0,0,0,0,0c-0.1-0.1-0.3-0.1-0.4,0c-0.1,0-0.1,0.1-0.2,0.1
		c-0.8,0.7-1.6,1.4-2.5,1.7c-0.5,0.2-0.9,0.2-1.4,0.2c-0.5-0.1-0.9-0.2-1.3-0.5c-0.8-0.5-1.4-1.4-1.9-2.4c-0.5-0.9-0.8-2-0.9-3
		c-0.2-1-0.2-2.1-0.1-3.1c0.1-0.5,0.2-1,0.4-1.5c0.2-0.4,0.5-0.8,0.8-1c0.2-0.1,0.4-0.2,0.6-0.2c0.2,0,0.5-0.1,0.7,0
		c0.5,0,0.9,0.2,1.3,0.4c0.8,0.5,1.5,1.4,1.9,2.3l0,0c0.1,0.2,0.3,0.3,0.5,0.3c0.2,0,0.4-0.3,0.4-0.5c-0.2-1.6-0.3-3.1-0.2-4.7
		c0.1-1.6,0.4-3.1,0.9-4.6c0.9-3,2.6-5.7,4.7-8c2.1-2.3,4.7-4.2,7.4-5.7c1.4-0.7,2.8-1.4,4.3-1.9c1.5-0.5,3-0.9,4.5-0.9h0
		c0,0,0,0,0,0c0.3,0,0.5-0.3,0.5-0.6c0-0.3-0.3-0.5-0.6-0.5c-1.7,0.1-3.3,0.5-4.8,1.1c-1.5,0.5-3,1.2-4.4,2c-2.8,1.6-5.5,3.6-7.6,6
		c-2.2,2.4-3.9,5.3-4.9,8.4c-0.8,2.5-1,5.1-0.9,7.7c-0.3-0.4-0.7-0.8-1.2-1.1c-0.5-0.3-1.1-0.6-1.8-0.6c-0.3,0-0.6,0-0.9,0
		c-0.3,0-0.7,0.1-1,0.3c-0.6,0.4-1,0.9-1.2,1.5c-0.2,0.6-0.4,1.2-0.5,1.7c-0.2,1.2-0.1,2.3,0.1,3.5c0.2,1.1,0.5,2.2,1,3.3
		c0.5,1,1.2,2.1,2.2,2.7c0.5,0.3,1.1,0.6,1.8,0.7c0.6,0.1,1.3,0,1.9-0.2c0.9-0.3,1.7-0.9,2.4-1.5c0.2,0.3,0.4,0.6,0.6,0.9
		c0.3,0.5,0.7,0.9,1,1.3c0.7,0.9,1.5,1.6,2.3,2.4c1.7,1.5,3.5,2.8,5.5,3.8c2,1,4,1.9,6.2,2.5c2.1,0.6,4.4,0.9,6.5,1.1
		c2.2,0.2,4.4,0.2,6.6-0.1c2.2-0.2,4.4-0.7,6.5-1.4c2.1-0.7,4.1-1.6,6-2.8c0.9-0.6,1.8-1.2,2.7-2c0.7-0.6,1.4-1.3,2-2
		c0.6,0.7,1.3,1.4,2.2,1.9c0.5,0.3,1.1,0.5,1.7,0.5c0.6,0,1.2-0.1,1.8-0.4c1.1-0.5,1.9-1.4,2.6-2.4c0.6-1,1.1-2,1.5-3.1
		C80.4,49,80.6,47.8,80.6,46.7z"/>
	<path class="st1" d="M73.2,49.3c0,0,0.3-2,4-1.7c2.7,0.2,0.5,3.2-1.9,3.8C74,51.6,72.6,50.6,73.2,49.3z"/>
	<path class="st1" d="M21.7,45.2c0,0,0.4-2-3.2-2.9c-2.6-0.7-1.5,2.9,0.5,4.2C20.1,47.2,21.8,46.7,21.7,45.2z"/>
	<path d="M72.9,49.6c0.3-0.9,1-1.7,1.9-2.1c0.5-0.2,0.9-0.3,1.4-0.4c0.2,0,0.5,0,0.7,0c0.2,0,0.5,0,0.7,0.1c0.3,0,0.4,0.3,0.4,0.5
		c0,0.2-0.2,0.4-0.5,0.4h-0.1c-0.2,0-0.4,0-0.6,0c-0.2,0-0.4,0-0.6,0c-0.4,0-0.8,0.1-1.2,0.2c-0.4,0.1-0.8,0.3-1.1,0.5
		c-0.3,0.2-0.7,0.5-0.9,0.9l0,0c0,0-0.1,0.1-0.1,0C72.9,49.7,72.9,49.6,72.9,49.6z"/>
	<path d="M75.4,50.2c0-0.1,0-0.4,0-0.5c0-0.2-0.1-0.4-0.1-0.6c-0.1-0.4-0.2-0.7-0.4-1.1l0,0c-0.1-0.2,0-0.5,0.2-0.6
		c0.2-0.1,0.5,0,0.6,0.2c0,0,0,0,0,0c0.1,0.2,0.2,0.4,0.2,0.6c0.1,0.2,0.1,0.4,0.1,0.7c0,0.2,0,0.4,0,0.7c0,0.2,0,0.4-0.1,0.7
		c0,0.2-0.2,0.3-0.4,0.2C75.4,50.5,75.4,50.4,75.4,50.2L75.4,50.2z"/>
	<path d="M21.6,45.5c-0.2-0.4-0.4-0.8-0.7-1.1c-0.3-0.3-0.6-0.6-1-0.8c-0.4-0.2-0.7-0.4-1.1-0.5c-0.2-0.1-0.4-0.1-0.6-0.2
		c-0.2,0-0.4-0.1-0.6-0.1l0,0c-0.2-0.1-0.4-0.3-0.3-0.6c0.1-0.2,0.3-0.4,0.5-0.3c0.2,0,0.5,0.1,0.7,0.1c0.2,0.1,0.5,0.1,0.7,0.2
		c0.5,0.2,0.9,0.4,1.3,0.7c0.8,0.6,1.3,1.6,1.3,2.5c0,0.1,0,0.1-0.1,0.1C21.7,45.6,21.6,45.6,21.6,45.5L21.6,45.5z"/>
	<path d="M18.7,45.5c0-0.3,0-0.5,0.1-0.7c0-0.2,0.1-0.4,0.2-0.6c0.1-0.2,0.2-0.4,0.3-0.6c0.1-0.2,0.2-0.4,0.4-0.6
		c0.2-0.2,0.4-0.3,0.7-0.1c0.2,0.2,0.3,0.4,0.1,0.7c0,0,0,0,0,0l0,0c-0.2,0.3-0.4,0.6-0.6,0.9c-0.1,0.2-0.2,0.3-0.2,0.5
		c-0.1,0.2-0.1,0.4-0.2,0.5l0,0c0,0.2-0.2,0.3-0.4,0.2C18.8,45.7,18.7,45.6,18.7,45.5z"/>
	<path class="st2" d="M41.6,41.1l0.5-0.2c0.1,0,0.3-0.1,0.4-0.1c0.3-0.1,0.5-0.1,0.8-0.2c0.5-0.1,1-0.2,1.5-0.3
		c1-0.1,2.1-0.2,3.1-0.1c1,0.1,2.1,0.2,3,0.5c1,0.3,2,0.7,2.8,1.2c1.1,0.6,1.4,2,0.8,3.1c-0.4,0.7-1.2,1.1-1.9,1.1l-0.3,0
		c-0.4,0-0.8-0.1-1.2-0.1c-0.4,0-0.8-0.1-1.2-0.1c-0.8-0.1-1.6-0.1-2.4-0.2c-0.8,0-1.6-0.1-2.4-0.1c-0.4,0-0.8,0-1.2,0l-0.6,0
		l-0.3,0l-0.1,0c0,0-0.1,0-0.1,0c-1.3,0.4-2.6-0.4-3-1.7C39.6,42.7,40.3,41.4,41.6,41.1z"/>
	<path d="M45.2,44.8c0.2-0.3,0.5-0.5,0.8-0.7c0.3-0.2,0.6-0.4,1.1-0.4c0.2,0,0.5,0.1,0.7,0.2c0.2,0.1,0.3,0.3,0.4,0.5
		c0.2,0.3,0.3,0.7,0.4,1c0,0.2-0.1,0.4-0.2,0.4s-0.4-0.1-0.4-0.2c0,0,0,0,0,0l0,0c-0.1-0.3-0.1-0.6-0.3-0.8
		c-0.1-0.2-0.3-0.4-0.5-0.4c-0.2,0-0.5,0.1-0.7,0.3c-0.2,0.2-0.5,0.4-0.7,0.6l0,0c-0.1,0.1-0.3,0.1-0.4,0
		C45.1,45.1,45.1,45,45.2,44.8z"/>
	<path d="M54.6,44.9c0.4-0.5,0.8-0.9,1.3-1.2c0.5-0.3,1-0.6,1.6-0.8c0.6-0.2,1.2-0.3,1.8-0.3c0.3,0,0.6,0,0.9,0.1
		c0.3,0,0.6,0.1,0.9,0.2c0.2,0.1,0.4,0.3,0.3,0.5c-0.1,0.2-0.3,0.4-0.5,0.3c0,0,0,0,0,0l-0.1,0c-0.3-0.1-0.5-0.2-0.8-0.2
		c-0.3-0.1-0.5-0.1-0.8-0.1c-0.5-0.1-1.1,0-1.6,0.1s-1.1,0.3-1.6,0.6c-0.5,0.3-1,0.6-1.4,1l0,0c0,0-0.1,0-0.1,0
		C54.6,45,54.6,44.9,54.6,44.9z"/>
	<path d="M40.3,42.7c-0.3-0.4-0.6-0.8-1-1.2c-0.4-0.4-0.8-0.7-1.2-0.9c-0.4-0.3-0.9-0.4-1.4-0.5c-0.5-0.1-1-0.1-1.5-0.1l0,0
		c-0.2,0-0.5-0.2-0.5-0.4c0-0.2,0.2-0.5,0.4-0.5c0,0,0,0,0,0c0.6,0,1.2,0.1,1.7,0.3c0.5,0.2,1.1,0.4,1.5,0.8
		c0.5,0.3,0.9,0.7,1.2,1.1c0.4,0.4,0.7,0.9,0.9,1.3c0,0.1,0,0.1,0,0.1C40.4,42.8,40.3,42.8,40.3,42.7L40.3,42.7z"/>
	<path d="M59.2,42.3c0.6-1,0.4-2.1-0.4-2.6c-0.8-0.4-1.9-0.1-2.5,0.9c-0.6,1-0.4,2.1,0.4,2.6C57.5,43.7,58.6,43.3,59.2,42.3z"/>
	<circle class="st3" cx="57.3" cy="40.9" r="1"/>
	<path d="M37,39.3c-0.3-1.1,0.1-2.2,1-2.4c0.9-0.2,1.9,0.4,2.2,1.5c0.3,1.1-0.1,2.1-1,2.4S37.3,40.4,37,39.3z"/>
	<circle class="st3" cx="39.2" cy="38.4" r="1"/>
</g>
<g>
	<path class="st4" d="M209.7,35.9c0.8-1.5,1.6-2.9,3-3.9c1.5-1.1,3.2-0.7,3.9,1.1c0.3,0.8,0.5,1.7,0.6,2.6c0.3,2.9,0,5.8-0.5,8.6
		c0,0.1-0.1,0.3-0.1,0.4c-0.4,0.9-1.3,1.5-1.9,1.4c-0.6-0.2-1-0.9-1-1.9c0-2.4,0-4.8,0-7.1c-0.6-0.2-0.7,0.2-0.9,0.5
		c-0.5,0.6-0.9,1.3-1.5,1.8c-1.1,1.2-2.1,1.2-3.1-0.1c-0.5-0.7-0.9-1.4-1.5-2.3c0,2.6,0,4.8,0,7c0,0.4,0,0.8,0,1.2
		c0,0.5-0.2,1-0.8,1.2c-0.6,0.2-1.1,0-1.5-0.4c-0.4-0.4-0.6-0.9-0.8-1.4c-0.7-2.6-0.8-5.3-0.8-8c0-0.9,0.2-1.9,0.5-2.7
		c0.6-1.7,2-2.2,3.5-1.1c0.8,0.5,1.3,1.3,1.8,2.1C208.9,35.1,209.1,35.6,209.7,35.9z"/>
	<path class="st5" d="M146.5,36.2c0.3-0.4,0.5-0.8,0.8-1.2c0.6-0.9,1.4-1.8,2.3-2.4c1.6-1.2,3.4-0.6,4,1.3c0.2,0.6,0.4,1.3,0.4,2
		c0.2,3.1-0.2,6.1-1,9.1c-0.1,0.5-0.5,1-0.9,1.3c-0.9,0.6-1.6,0.3-1.9-0.6c-0.1-0.4-0.1-0.9-0.1-1.3c0.1-2,0.2-4,0.3-6
		c0-0.3,0.2-0.7-0.3-0.9c-0.3-0.1-0.5,0.3-0.7,0.5c-0.5,0.5-0.9,1-1.4,1.5c-1.3,1.4-2.4,1.3-3.4-0.4c-0.1-0.2-0.2-0.4-0.3-0.6
		c-0.2-0.3-0.2-0.9-0.7-0.8c-0.5,0.1-0.3,0.7-0.4,1.1c-0.1,1.8-0.1,3.6-0.2,5.4c0,0.3,0,0.7-0.1,1c-0.3,1-1.2,1.4-2,0.7
		c-0.5-0.4-0.8-1-0.9-1.6c-0.5-2.8-0.6-5.5-0.3-8.3c0.1-0.9,0.3-1.8,0.7-2.7c0.7-1.4,2-1.7,3.3-0.8c0.8,0.6,1.3,1.4,1.9,2.2
		C145.8,35.2,146,35.7,146.5,36.2z"/>
	<path class="st6" d="M97.3,40.8c0,0.6,0,0.9-0.1,1.3c-0.3,3.7-3.7,5.6-7,4.2c-0.7-0.3-1.2-0.7-2-0.7c-0.6,0-0.9-0.5-1.1-1.1
		c-0.2-0.7-0.3-1.4-0.3-2.2c0-1.8-0.1-3.6-0.1-5.4c0-0.6-0.1-1-0.8-1c-0.8,0-1.3-0.6-1.5-1.4c-0.2-0.8,0.2-1.5,0.8-1.9
		c2.3-1.5,4.8-2.3,7.6-1.8c3.5,0.6,3.5,3.1,2.8,5.4c-0.1,0.5-0.7,0.8-0.5,1.3c0.2,0.3,0.7,0.5,1,0.8C97.2,38.9,97.4,39.9,97.3,40.8z
		 M92.7,39.5c-0.8-0.1-1.6,0.5-2.4,0.5c-0.3,0-0.4,0.2-0.4,0.5c0,0.8,0,1.6,0,2.3c0.1,1,1,1,1.6,1.4c0.5,0.3,0.8,0.1,1.2-0.2
		c0.9-0.8,1.5-2.6,1.1-3.8C93.7,39.7,93.4,39.4,92.7,39.5z M89.9,37.4c0.8-0.2,1.6-0.4,2.2-0.8c0.8-0.5,1-1.3,0.6-2.1
		c-0.4-0.8-1.1-1-2.1-0.8c-1.1,0.3-1.2,0.4-1.1,1.6C89.6,35.9,89.6,36.6,89.9,37.4z"/>
	<path class="st6" d="M121.2,33.5c-0.1,0.9-0.1,1.8-0.7,2.5c-0.5,0.6-0.2,0.8,0.3,1.1c1.2,0.6,1.6,1.7,1.7,3c0.1,2.6-0.9,4.5-3,5.4
		c-1.3,0.6-2.6,0.7-4,0.1c-0.7-0.3-1.4-0.8-2.3-0.9c-0.6,0-0.9-0.6-1-1.1c-0.2-0.8-0.3-1.6-0.3-2.5c0-1.7-0.1-3.4-0.1-5.1
		c0-0.6-0.1-0.9-0.8-1c-0.9-0.1-1.4-0.6-1.6-1.5c-0.2-0.8,0.2-1.4,0.9-1.8c2.6-1.6,5.4-2.5,8.5-1.5
		C120.5,30.8,121.3,31.9,121.2,33.5z M117.7,38.8c-0.1,0-0.4,0.1-0.7,0.2c-1.8,0.5-1.8,0.5-1.8,2.3c0,1.2,1,2.3,2.1,2.5
		c0.3,0,0.5-0.1,0.7-0.2c0.9-0.7,1.5-2.8,1.1-3.9C118.9,39,118.6,38.7,117.7,38.8z M114.8,34.9c0.2,2,0.4,2.1,2.2,1.1
		c0.2-0.1,0.4-0.2,0.6-0.4c0.6-0.5,0.7-1.2,0.4-1.9c-0.3-0.6-0.8-1-1.5-1C115.1,32.8,114.7,33.4,114.8,34.9z"/>
	<path class="st5" d="M174.6,40.6c0.1-0.9,0.1-2,0.3-3c0.1-0.5,0-0.7-0.5-0.9c-1.3-0.7-1.4-1.8-0.4-2.8c0.3-0.3,0.6-0.5,1-0.7
		c2.1-0.8,4.1-1.6,6.3-1.9c0.9-0.1,1.7,0,2.4,0.4c0.9,0.4,1,1.1,0.4,1.9c-0.4,0.5-0.9,0.7-1.5,0.9c-1,0.2-2,0.5-3,0.8
		c-0.5,0.1-0.9,0.4-1.1,0.9c-0.1,0.4-0.6,0.8-0.2,1.2c0.4,0.5,0.8,0,1.2-0.1c1.1-0.4,1.9-0.3,2.1,0.2c0.3,0.5-0.3,1.5-1.2,2
		c-0.7,0.4-1.4,0.7-2,1.1c-0.7,0.5-1,1.7-0.6,2.4c0.3,0.4,0.6,0.2,0.9,0.1c0.9-0.4,1.8-0.8,2.7-1.2c0.7-0.3,1.3-0.4,2,0
		c0.8,0.5,1,1,0.4,1.7c-1.9,2-4.2,3.1-7.1,3c-0.8,0-1.3-0.7-1.5-1.5C174.7,43.6,174.5,42.2,174.6,40.6z M178.3,37.7
		c0-0.1-0.1-0.1-0.1-0.2c0,0-0.1,0.1-0.1,0.1c0,0.1,0.1,0.1,0.1,0.2C178.2,37.8,178.3,37.7,178.3,37.7z"/>
	<path class="st4" d="M237.8,40c0.1-1,0.1-2.1,0.2-3.1c0.1-0.5,0.1-0.8-0.5-1.1c-1.1-0.5-1.3-1.6-0.5-2.5c0.3-0.4,0.8-0.8,1.3-1
		c2-0.7,3.9-1.5,6-1.9c0.9-0.1,1.8-0.1,2.6,0.3c0.9,0.4,1.1,1,0.4,1.9c-0.4,0.5-0.9,0.7-1.5,0.9c-1,0.2-2,0.5-3,0.8
		c-0.4,0.1-0.8,0.2-1,0.6c-0.2,0.5-0.7,1-0.4,1.5c0.4,0.6,0.9,0,1.3-0.1c1-0.3,1.7-0.3,2,0.3c0.3,0.5-0.2,1.5-1,1.9
		c-0.8,0.5-1.6,0.9-2.4,1.4c-0.5,0.3-0.8,1.9-0.4,2.3c0.2,0.3,0.6,0.1,0.8,0c0.9-0.4,1.8-0.8,2.7-1.2c0.6-0.3,1.2-0.5,1.8-0.1
		c1,0.5,1.2,1.2,0.4,2c-1.5,1.4-3.3,2.5-5.4,2.7c-2.2,0.2-2.8-0.2-3.3-2.3C237.9,42.1,237.7,41.1,237.8,40z M241.6,36.8
		C241.5,36.7,241.5,36.7,241.6,36.8c-0.2-0.1-0.2,0-0.3,0c0,0,0.1,0.1,0.1,0.1C241.4,36.9,241.5,36.8,241.6,36.8z"/>
	<path class="st4" d="M196.5,36.6c1.7,0.1,3.1,0.6,3.9,2.1c0.9,1.7,1,3.4,0.1,5c-0.9,1.5-2.4,1.8-4,1.8c-1.4,0-2.8-0.2-4.1-0.9
		c-0.9-0.5-1.4-1.1-1.7-2.1c-0.1-0.6,0-1,0.5-1.4c0.5-0.4,0.9-0.3,1.3,0c1.2,0.7,2.5,1.1,3.9,1.1c0.6,0,1-0.2,1.4-0.6
		c0.7-0.9,0.6-1.6-0.5-1.9c-1-0.3-2-0.5-3-0.6c-1.5-0.3-2.4-1.2-2.9-2.6c-0.5-1.5-0.5-3,0.6-4.3c1.4-1.5,5.9-1.7,7.4-0.2
		c0.7,0.7,0.9,1.4,0.5,2.1c-0.3,0.5-0.7,0.8-1.3,0.6c-0.8-0.3-1.6-0.4-2.4-0.5c-1-0.2-1.6,0.2-1.7,1.1c-0.1,0.8,0.4,1.3,1.5,1.4
		C196.1,36.6,196.3,36.6,196.5,36.6z"/>
	<path class="st6" d="M99,43.2c0.1-3.3,0.9-6.4,1.5-9.4c0.4-2,2.5-2.5,4.1-1.3c0.8,0.6,1.5,1.4,2.1,2.2c1.9,2.8,3.2,5.8,3.6,9.2
		c0,0.4,0,0.8-0.1,1.2c-0.2,0.6-0.8,0.9-1.3,1c-0.5,0.1-0.8-0.4-1-0.7c-0.7-1.1-1-2.4-1.5-3.6c-0.4-1-0.4-1-1.3-0.6
		c-0.4,0.2-0.9,0.4-1.3,0.7c-1.1,0.6-2.1,1.1-2,2.6c0.1,0.7-0.8,1.4-1.5,1.6c-0.3,0.1-0.5-0.1-0.7-0.4C98.8,44.9,98.9,44,99,43.2z
		 M102.1,39.7c0.8-0.5,1.2-0.8,1.7-1.1c1.1-0.6,1.1-0.6,0.5-1.7c-0.3-0.5-0.5-0.9-1.1-1.1C102.4,36.8,102.6,38.2,102.1,39.7z"/>
	<path class="st6" d="M128.6,38.2c0.7-1.6,1.1-3.4,1.7-5.1c0.1-0.3,0.2-0.7,0.3-1c0.4-0.8,1.2-1.1,1.9-0.9c0.8,0.2,1.3,0.9,1.3,1.7
		c0,0.2,0,0.4-0.1,0.6c-0.8,2.5-1.5,5.1-3.2,7.2c-1.6,2.1-2.9,4.3-5,5.9c-0.6,0.4-1.1,0.6-1.8,0.5c-0.8-0.2-1-0.7-0.5-1.4
		c0.6-0.9,1.2-1.9,1.9-2.8c0.7-0.8,0.7-1.6,0.3-2.4c-1.1-2.2-1.8-4.5-2.4-6.9c-0.3-1.2-0.1-1.8,0.8-2c0.9-0.3,1.9,0.3,2.1,1.3
		c0.3,1.6,0.8,3.1,1.7,4.5C127.9,37.7,128,38.1,128.6,38.2z"/>
	<path class="st5" d="M163.3,39.1c-0.1-1.4,0-2.8,0.3-4.2c0.2-0.8,0.5-1.5,0.9-2.1c0.7-0.9,1.6-0.9,2.3,0c0.5,0.6,0.6,1.3,0.5,2.1
		c-0.2,2.3-0.5,4.6-0.5,6.9c0,1.2,0.1,1.2,1.1,0.7c1.1-0.6,2.2-1.3,3.5-1.3c1.1,0,1.5,0.5,1.1,1.5c-0.9,1.9-4.6,4.1-6.7,4
		c-0.9,0-1.4-0.7-1.7-1.4c-0.5-1.2-0.8-2.5-0.9-3.9C163.2,40.6,163.3,39.9,163.3,39.1z"/>
	<path class="st4" d="M226.4,39.1c0-1.4,0-2.7,0.3-4.1c0.2-0.8,0.4-1.5,0.9-2.2c0.7-1,1.8-1,2.5,0c0.4,0.6,0.5,1.3,0.4,2
		c-0.2,2.2-0.5,4.4-0.5,6.6c0,1.5,0,1.6,1.4,0.8c1-0.6,2-1.1,3.3-1.2c1.1,0,1.5,0.5,1,1.5c-0.9,1.9-4.6,4.1-6.7,4
		c-1-0.1-1.4-0.8-1.7-1.6c-0.6-1.7-0.9-3.4-0.9-5.2C226.4,39.6,226.4,39.4,226.4,39.1z"/>
	<path class="st7" d="M260.1,42.7c-1.5-0.8-2.7-0.3-3.8,1.3c-0.7,0.9-2,0.4-2.4-0.8c-0.1-0.2-0.2-0.4-0.1-0.6
		c0.1-1.4-0.4-2.3-1.9-2.6c-1-0.2-1.2-1.2-0.5-2c0.1-0.1,0.2-0.3,0.3-0.3c1.5-0.7,1.8-2,1.9-3.6c0.1-1.7,1.7-2.2,3.1-1.2
		c0.2,0.2,0.5,0.3,0.6,0.6c0.6,1,1.2,1.5,2.4,0.9c0.6-0.3,1.2,0,1.6,0.5c0.4,0.5,0.3,1.1,0.1,1.7c-0.1,0.1-0.1,0.3-0.2,0.4
		c-0.8,1-0.7,1.8,0.1,2.7c0.2,0.2,0.4,0.5,0.5,0.8C262.4,41.7,261.8,42.6,260.1,42.7z"/>
	<path class="st7" d="M2.1,35.8c0.1,0,0.3,0.1,0.4,0.1c1,0.5,1.6,0.1,2-0.8c0-0.1,0.1-0.2,0.2-0.3c0.7-0.6,1.3-1.3,2.4-1
		c1,0.4,1.4,1.2,1.3,2.2c-0.1,1.2,0.3,2.1,1.4,2.6c0.3,0.1,0.5,0.4,0.7,0.6c0.8,0.9,0.6,1.9-0.5,2.1c-1.5,0.3-1.9,1.2-1.8,2.5
		c0,0.3-0.1,0.5-0.2,0.8c-0.4,1.1-1.4,1.4-2.3,0.8c-0.3-0.2-0.5-0.4-0.7-0.7c-0.5-1.1-1.3-1.3-2.4-0.8c-0.4,0.2-0.9,0.2-1.3,0.1
		c-1.3-0.1-1.8-1-1.2-2.2c0-0.1,0.1-0.2,0.2-0.3c1.1-1.2,1.3-2.4,0.3-3.8C-0.1,36.9,0.8,35.7,2.1,35.8z"/>
	<path class="st4" d="M220.3,39.7c-0.1-2.1-0.1-4.3-0.3-6.4c0-0.3,0-0.7,0.1-1c0.3-1,1.4-1.3,2.2-0.6c0.5,0.4,0.7,0.9,0.9,1.5
		c1,3.7,0.8,7.4-0.5,11.1c-0.1,0.4-0.4,0.7-0.7,0.9c-0.3,0.3-0.7,0.4-1.1,0.3c-0.4-0.2-0.6-0.5-0.6-1
		C220.3,43,220.3,41.3,220.3,39.7z"/>
	<path class="st5" d="M157.1,39.7c-0.1-2.1-0.1-4.3-0.3-6.4c0-0.4,0-0.8,0.2-1.1c0.4-0.9,1.3-1.1,2.1-0.5c0.6,0.5,0.9,1.1,1,1.7
		c0.9,3.7,0.8,7.3-0.6,10.8c-0.1,0.3-0.3,0.5-0.4,0.8c-0.3,0.4-0.7,0.7-1.2,0.6c-0.6-0.1-0.7-0.7-0.7-1.2
		C157.1,42.8,157.1,41.3,157.1,39.7z"/>
</g>
</svg>
